<svg xmlns="http://www.w3.org/2000/svg" viewBox="0 0 512 512" role="img" aria-label="AuvergneInfo">
  <defs>
    <radialGradient id="bg" cx="34%" cy="24%" r="82%">
      <stop offset="0" stop-color="#145fd2"/>
      <stop offset="0.55" stop-color="#0b45a6"/>
      <stop offset="1" stop-color="#052b78"/>
    </radialGradient>
  </defs>

  <circle cx="256" cy="256" r="246" fill="url(#bg)"/>

  <text
    x="256"
    y="292"
    text-anchor="middle"
    font-family="Arial Black, Arial, Helvetica, sans-serif"
    font-size="270"
    font-weight="900"
    letter-spacing="-20"
    fill="#fff">AI</text>

  <path d="M82 407 181 337l31 25 47-50 64 58 33-25 78 62H82Z" fill="#fff"/>
  <path d="m98 403 83-58 19 15-42 24 39-11-29 30h-70Zm109 2 52-82 38 34-31-11 18 22-24-5-53 42Zm62 0 54-43 19 15-28-7 18 21-63 14Z" fill="#0b45a6"/>
  <path d="m167 396 40-42-11 31 28-24-18 34Zm91-16 22-31 11 12-16-5 7 15-24 9Zm60 14 19-15 12 10-13-2 8 11Z" fill="#fff"/>
</svg>
